<mxfile host="app.diagrams.net" agent="Mozilla/5.0 (Windows NT 10.0; Win64; x64; rv:130.0) Gecko/20100101 Firefox/130.0" version="24.7.16">
  <diagram id="C5RBs43oDa-KdzZeNtuy" name="Page-1">
    <mxGraphModel dx="2607" dy="1353" grid="1" gridSize="10" guides="1" tooltips="1" connect="1" arrows="1" fold="1" page="1" pageScale="1" pageWidth="827" pageHeight="1169" math="0" shadow="0">
      <root>
        <mxCell id="WIyWlLk6GJQsqaUBKTNV-0" />
        <mxCell id="WIyWlLk6GJQsqaUBKTNV-1" parent="WIyWlLk6GJQsqaUBKTNV-0" />
        <mxCell id="J2dyGMC0eDG8jGoPul1R-4" style="edgeStyle=orthogonalEdgeStyle;rounded=0;orthogonalLoop=1;jettySize=auto;html=1;exitX=0.5;exitY=1;exitDx=0;exitDy=0;entryX=0.5;entryY=0;entryDx=0;entryDy=0;" edge="1" parent="WIyWlLk6GJQsqaUBKTNV-1" source="J2dyGMC0eDG8jGoPul1R-1" target="J2dyGMC0eDG8jGoPul1R-3">
          <mxGeometry relative="1" as="geometry" />
        </mxCell>
        <mxCell id="J2dyGMC0eDG8jGoPul1R-1" value="def encrypt(original:int, key:int):" style="shape=process;whiteSpace=wrap;html=1;backgroundOutline=1;" vertex="1" parent="WIyWlLk6GJQsqaUBKTNV-1">
          <mxGeometry x="158.96" y="60" width="220" height="70" as="geometry" />
        </mxCell>
        <mxCell id="J2dyGMC0eDG8jGoPul1R-6" style="edgeStyle=orthogonalEdgeStyle;rounded=0;orthogonalLoop=1;jettySize=auto;html=1;exitX=0.5;exitY=1;exitDx=0;exitDy=0;" edge="1" parent="WIyWlLk6GJQsqaUBKTNV-1" source="J2dyGMC0eDG8jGoPul1R-3" target="J2dyGMC0eDG8jGoPul1R-5">
          <mxGeometry relative="1" as="geometry" />
        </mxCell>
        <mxCell id="J2dyGMC0eDG8jGoPul1R-3" value="&amp;nbsp;&amp;nbsp;&amp;nbsp; binary_original = base_10_to_2_15_bits(original) &lt;br&gt;&amp;nbsp;&amp;nbsp;&amp;nbsp; binary_key = base_10_to_2_15_bits(key)" style="rounded=1;whiteSpace=wrap;html=1;" vertex="1" parent="WIyWlLk6GJQsqaUBKTNV-1">
          <mxGeometry x="123.96" y="160" width="290" height="60" as="geometry" />
        </mxCell>
        <mxCell id="J2dyGMC0eDG8jGoPul1R-12" style="edgeStyle=orthogonalEdgeStyle;rounded=0;orthogonalLoop=1;jettySize=auto;html=1;exitX=0.5;exitY=1;exitDx=0;exitDy=0;entryX=0.5;entryY=0;entryDx=0;entryDy=0;" edge="1" parent="WIyWlLk6GJQsqaUBKTNV-1" source="J2dyGMC0eDG8jGoPul1R-5" target="J2dyGMC0eDG8jGoPul1R-8">
          <mxGeometry relative="1" as="geometry" />
        </mxCell>
        <mxCell id="J2dyGMC0eDG8jGoPul1R-5" value="round_1 = &#39;&#39;" style="rounded=1;whiteSpace=wrap;html=1;" vertex="1" parent="WIyWlLk6GJQsqaUBKTNV-1">
          <mxGeometry x="226.46" y="250" width="85" height="30" as="geometry" />
        </mxCell>
        <mxCell id="J2dyGMC0eDG8jGoPul1R-10" value="" style="group" vertex="1" connectable="0" parent="WIyWlLk6GJQsqaUBKTNV-1">
          <mxGeometry x="218.96" y="300" width="100" height="60" as="geometry" />
        </mxCell>
        <mxCell id="J2dyGMC0eDG8jGoPul1R-8" value="" style="verticalLabelPosition=bottom;verticalAlign=top;html=1;shape=hexagon;perimeter=hexagonPerimeter2;arcSize=6;size=0.27;" vertex="1" parent="J2dyGMC0eDG8jGoPul1R-10">
          <mxGeometry width="100" height="60" as="geometry" />
        </mxCell>
        <mxCell id="J2dyGMC0eDG8jGoPul1R-9" value="for i in range(15):" style="text;html=1;align=center;verticalAlign=middle;whiteSpace=wrap;rounded=0;" vertex="1" parent="J2dyGMC0eDG8jGoPul1R-10">
          <mxGeometry x="20" y="15" width="60" height="30" as="geometry" />
        </mxCell>
        <mxCell id="J2dyGMC0eDG8jGoPul1R-19" style="edgeStyle=orthogonalEdgeStyle;rounded=0;orthogonalLoop=1;jettySize=auto;html=1;exitX=0;exitY=0.5;exitDx=0;exitDy=0;entryX=0.5;entryY=0;entryDx=0;entryDy=0;" edge="1" parent="WIyWlLk6GJQsqaUBKTNV-1" source="J2dyGMC0eDG8jGoPul1R-13" target="J2dyGMC0eDG8jGoPul1R-17">
          <mxGeometry relative="1" as="geometry" />
        </mxCell>
        <mxCell id="J2dyGMC0eDG8jGoPul1R-187" value="No" style="edgeLabel;html=1;align=center;verticalAlign=middle;resizable=0;points=[];" vertex="1" connectable="0" parent="J2dyGMC0eDG8jGoPul1R-19">
          <mxGeometry x="0.1534" y="4" relative="1" as="geometry">
            <mxPoint as="offset" />
          </mxGeometry>
        </mxCell>
        <mxCell id="J2dyGMC0eDG8jGoPul1R-20" style="edgeStyle=orthogonalEdgeStyle;rounded=0;orthogonalLoop=1;jettySize=auto;html=1;exitX=0.5;exitY=1;exitDx=0;exitDy=0;entryX=0.5;entryY=0;entryDx=0;entryDy=0;" edge="1" parent="WIyWlLk6GJQsqaUBKTNV-1" source="J2dyGMC0eDG8jGoPul1R-13" target="J2dyGMC0eDG8jGoPul1R-15">
          <mxGeometry relative="1" as="geometry" />
        </mxCell>
        <mxCell id="J2dyGMC0eDG8jGoPul1R-186" value="Yes" style="edgeLabel;html=1;align=center;verticalAlign=middle;resizable=0;points=[];" vertex="1" connectable="0" parent="J2dyGMC0eDG8jGoPul1R-20">
          <mxGeometry x="-0.3333" y="3" relative="1" as="geometry">
            <mxPoint as="offset" />
          </mxGeometry>
        </mxCell>
        <mxCell id="J2dyGMC0eDG8jGoPul1R-13" value="if binary_original[i] == binary_key[i]:" style="rhombus;whiteSpace=wrap;html=1;" vertex="1" parent="WIyWlLk6GJQsqaUBKTNV-1">
          <mxGeometry x="148.96" y="380" width="240" height="80" as="geometry" />
        </mxCell>
        <mxCell id="J2dyGMC0eDG8jGoPul1R-14" style="edgeStyle=orthogonalEdgeStyle;rounded=0;orthogonalLoop=1;jettySize=auto;html=1;exitX=0.5;exitY=1;exitDx=0;exitDy=0;entryX=0.5;entryY=0;entryDx=0;entryDy=0;" edge="1" parent="WIyWlLk6GJQsqaUBKTNV-1" source="J2dyGMC0eDG8jGoPul1R-8" target="J2dyGMC0eDG8jGoPul1R-13">
          <mxGeometry relative="1" as="geometry" />
        </mxCell>
        <mxCell id="J2dyGMC0eDG8jGoPul1R-47" style="edgeStyle=orthogonalEdgeStyle;rounded=0;orthogonalLoop=1;jettySize=auto;html=1;exitX=0.5;exitY=1;exitDx=0;exitDy=0;entryX=0;entryY=0.5;entryDx=0;entryDy=0;" edge="1" parent="WIyWlLk6GJQsqaUBKTNV-1" source="J2dyGMC0eDG8jGoPul1R-15" target="J2dyGMC0eDG8jGoPul1R-8">
          <mxGeometry relative="1" as="geometry">
            <Array as="points">
              <mxPoint x="268.96" y="560" />
              <mxPoint x="58.96" y="560" />
              <mxPoint x="58.96" y="330" />
            </Array>
          </mxGeometry>
        </mxCell>
        <mxCell id="J2dyGMC0eDG8jGoPul1R-15" value="round_1 += &#39;0&#39;" style="rounded=1;whiteSpace=wrap;html=1;" vertex="1" parent="WIyWlLk6GJQsqaUBKTNV-1">
          <mxGeometry x="226.46" y="490" width="85" height="30" as="geometry" />
        </mxCell>
        <mxCell id="J2dyGMC0eDG8jGoPul1R-48" style="edgeStyle=orthogonalEdgeStyle;rounded=0;orthogonalLoop=1;jettySize=auto;html=1;exitX=0.5;exitY=1;exitDx=0;exitDy=0;" edge="1" parent="WIyWlLk6GJQsqaUBKTNV-1" source="J2dyGMC0eDG8jGoPul1R-17">
          <mxGeometry relative="1" as="geometry">
            <mxPoint x="218.96" y="330" as="targetPoint" />
            <Array as="points">
              <mxPoint x="120.96" y="560" />
              <mxPoint x="58.96" y="560" />
              <mxPoint x="58.96" y="330" />
            </Array>
          </mxGeometry>
        </mxCell>
        <mxCell id="J2dyGMC0eDG8jGoPul1R-17" value="round_1 += &#39;1&#39;" style="rounded=1;whiteSpace=wrap;html=1;" vertex="1" parent="WIyWlLk6GJQsqaUBKTNV-1">
          <mxGeometry x="78.96" y="490" width="85" height="30" as="geometry" />
        </mxCell>
        <mxCell id="J2dyGMC0eDG8jGoPul1R-166" style="edgeStyle=orthogonalEdgeStyle;rounded=0;orthogonalLoop=1;jettySize=auto;html=1;exitX=0.5;exitY=1;exitDx=0;exitDy=0;" edge="1" parent="WIyWlLk6GJQsqaUBKTNV-1" source="J2dyGMC0eDG8jGoPul1R-21">
          <mxGeometry relative="1" as="geometry">
            <mxPoint x="600.826086956522" y="360" as="targetPoint" />
          </mxGeometry>
        </mxCell>
        <mxCell id="J2dyGMC0eDG8jGoPul1R-21" value="round_2 = []&lt;br&gt;divided_key = []" style="rounded=1;whiteSpace=wrap;html=1;" vertex="1" parent="WIyWlLk6GJQsqaUBKTNV-1">
          <mxGeometry x="539.99" y="111" width="122.5" height="30" as="geometry" />
        </mxCell>
        <mxCell id="J2dyGMC0eDG8jGoPul1R-33" value="" style="group" vertex="1" connectable="0" parent="WIyWlLk6GJQsqaUBKTNV-1">
          <mxGeometry x="531.25" y="190" width="140" height="60" as="geometry" />
        </mxCell>
        <mxCell id="J2dyGMC0eDG8jGoPul1R-34" value="" style="verticalLabelPosition=bottom;verticalAlign=top;html=1;shape=hexagon;perimeter=hexagonPerimeter2;arcSize=6;size=0.27;" vertex="1" parent="J2dyGMC0eDG8jGoPul1R-33">
          <mxGeometry width="140" height="60" as="geometry" />
        </mxCell>
        <mxCell id="J2dyGMC0eDG8jGoPul1R-35" value="&lt;div&gt;for i in&amp;nbsp;&lt;/div&gt;&lt;div&gt;range(0, 15, 5)&lt;/div&gt;" style="text;html=1;align=center;verticalAlign=middle;whiteSpace=wrap;rounded=0;" vertex="1" parent="J2dyGMC0eDG8jGoPul1R-33">
          <mxGeometry x="28" y="15" width="84" height="30" as="geometry" />
        </mxCell>
        <mxCell id="J2dyGMC0eDG8jGoPul1R-39" style="edgeStyle=orthogonalEdgeStyle;rounded=0;orthogonalLoop=1;jettySize=auto;html=1;exitX=0.5;exitY=1;exitDx=0;exitDy=0;" edge="1" parent="WIyWlLk6GJQsqaUBKTNV-1" source="J2dyGMC0eDG8jGoPul1R-37">
          <mxGeometry relative="1" as="geometry">
            <mxPoint x="531.24" y="220" as="targetPoint" />
            <Array as="points">
              <mxPoint x="600.24" y="340" />
              <mxPoint x="470.24" y="340" />
              <mxPoint x="470.24" y="220" />
            </Array>
          </mxGeometry>
        </mxCell>
        <mxCell id="J2dyGMC0eDG8jGoPul1R-37" value="&amp;nbsp;&amp;nbsp;&amp;nbsp;&amp;nbsp;&amp;nbsp;&amp;nbsp;&amp;nbsp; round_2.append(round_1[i:i+5])&amp;nbsp;&amp;nbsp;&amp;nbsp;&amp;nbsp;&amp;nbsp; divided_key.append(binary_key[i:i+5])" style="rounded=1;whiteSpace=wrap;html=1;" vertex="1" parent="WIyWlLk6GJQsqaUBKTNV-1">
          <mxGeometry x="489.99" y="280" width="221.25" height="40" as="geometry" />
        </mxCell>
        <mxCell id="J2dyGMC0eDG8jGoPul1R-38" style="edgeStyle=orthogonalEdgeStyle;rounded=0;orthogonalLoop=1;jettySize=auto;html=1;exitX=0.5;exitY=1;exitDx=0;exitDy=0;entryX=0.5;entryY=0;entryDx=0;entryDy=0;" edge="1" parent="WIyWlLk6GJQsqaUBKTNV-1" source="J2dyGMC0eDG8jGoPul1R-34" target="J2dyGMC0eDG8jGoPul1R-37">
          <mxGeometry relative="1" as="geometry" />
        </mxCell>
        <mxCell id="J2dyGMC0eDG8jGoPul1R-43" style="edgeStyle=orthogonalEdgeStyle;rounded=0;orthogonalLoop=1;jettySize=auto;html=1;exitX=0.5;exitY=1;exitDx=0;exitDy=0;entryX=0.5;entryY=0;entryDx=0;entryDy=0;" edge="1" parent="WIyWlLk6GJQsqaUBKTNV-1" source="J2dyGMC0eDG8jGoPul1R-40" target="J2dyGMC0eDG8jGoPul1R-42">
          <mxGeometry relative="1" as="geometry" />
        </mxCell>
        <mxCell id="J2dyGMC0eDG8jGoPul1R-40" value="shift = key % 3" style="rounded=1;whiteSpace=wrap;html=1;" vertex="1" parent="WIyWlLk6GJQsqaUBKTNV-1">
          <mxGeometry x="539.37" y="360" width="122.5" height="30" as="geometry" />
        </mxCell>
        <mxCell id="J2dyGMC0eDG8jGoPul1R-41" style="edgeStyle=orthogonalEdgeStyle;rounded=0;orthogonalLoop=1;jettySize=auto;html=1;exitX=1;exitY=0.5;exitDx=0;exitDy=0;entryX=1;entryY=0.5;entryDx=0;entryDy=0;" edge="1" parent="WIyWlLk6GJQsqaUBKTNV-1" source="J2dyGMC0eDG8jGoPul1R-34" target="J2dyGMC0eDG8jGoPul1R-40">
          <mxGeometry relative="1" as="geometry">
            <Array as="points">
              <mxPoint x="731.24" y="220" />
              <mxPoint x="731.24" y="375" />
            </Array>
          </mxGeometry>
        </mxCell>
        <mxCell id="J2dyGMC0eDG8jGoPul1R-67" style="edgeStyle=orthogonalEdgeStyle;rounded=0;orthogonalLoop=1;jettySize=auto;html=1;exitX=0.5;exitY=1;exitDx=0;exitDy=0;entryX=0;entryY=0.5;entryDx=0;entryDy=0;" edge="1" parent="WIyWlLk6GJQsqaUBKTNV-1" source="J2dyGMC0eDG8jGoPul1R-42" target="J2dyGMC0eDG8jGoPul1R-44">
          <mxGeometry relative="1" as="geometry">
            <Array as="points">
              <mxPoint x="601" y="540" />
              <mxPoint x="760" y="540" />
              <mxPoint x="760" y="124" />
            </Array>
          </mxGeometry>
        </mxCell>
        <mxCell id="J2dyGMC0eDG8jGoPul1R-42" value="new_round_2 = round_2[shift:] + round_2[:shift]" style="rounded=1;whiteSpace=wrap;html=1;" vertex="1" parent="WIyWlLk6GJQsqaUBKTNV-1">
          <mxGeometry x="460" y="410" width="281.24" height="30" as="geometry" />
        </mxCell>
        <mxCell id="J2dyGMC0eDG8jGoPul1R-56" style="edgeStyle=orthogonalEdgeStyle;rounded=0;orthogonalLoop=1;jettySize=auto;html=1;exitX=0.5;exitY=1;exitDx=0;exitDy=0;entryX=0.5;entryY=0;entryDx=0;entryDy=0;" edge="1" parent="WIyWlLk6GJQsqaUBKTNV-1" source="J2dyGMC0eDG8jGoPul1R-44" target="J2dyGMC0eDG8jGoPul1R-51">
          <mxGeometry relative="1" as="geometry" />
        </mxCell>
        <mxCell id="J2dyGMC0eDG8jGoPul1R-44" value="round_3 = [&#39;&#39;,&#39;&#39;,&#39;&#39;]" style="rounded=1;whiteSpace=wrap;html=1;" vertex="1" parent="WIyWlLk6GJQsqaUBKTNV-1">
          <mxGeometry x="959.99" y="109.5" width="111.25" height="30" as="geometry" />
        </mxCell>
        <mxCell id="J2dyGMC0eDG8jGoPul1R-49" style="edgeStyle=orthogonalEdgeStyle;rounded=0;orthogonalLoop=1;jettySize=auto;html=1;exitX=1;exitY=0.5;exitDx=0;exitDy=0;entryX=0;entryY=0.5;entryDx=0;entryDy=0;" edge="1" parent="WIyWlLk6GJQsqaUBKTNV-1">
          <mxGeometry relative="1" as="geometry">
            <mxPoint x="318.34000000000003" y="330" as="sourcePoint" />
            <mxPoint x="539.3699999999998" y="126" as="targetPoint" />
            <Array as="points">
              <mxPoint x="439" y="330" />
              <mxPoint x="439" y="126" />
            </Array>
          </mxGeometry>
        </mxCell>
        <mxCell id="J2dyGMC0eDG8jGoPul1R-50" value="" style="group" vertex="1" connectable="0" parent="WIyWlLk6GJQsqaUBKTNV-1">
          <mxGeometry x="965.62" y="160.5" width="100" height="60" as="geometry" />
        </mxCell>
        <mxCell id="J2dyGMC0eDG8jGoPul1R-51" value="" style="verticalLabelPosition=bottom;verticalAlign=top;html=1;shape=hexagon;perimeter=hexagonPerimeter2;arcSize=6;size=0.27;" vertex="1" parent="J2dyGMC0eDG8jGoPul1R-50">
          <mxGeometry width="100" height="60" as="geometry" />
        </mxCell>
        <mxCell id="J2dyGMC0eDG8jGoPul1R-52" value="for i in range(3):" style="text;html=1;align=center;verticalAlign=middle;whiteSpace=wrap;rounded=0;" vertex="1" parent="J2dyGMC0eDG8jGoPul1R-50">
          <mxGeometry x="20" y="15" width="60" height="30" as="geometry" />
        </mxCell>
        <mxCell id="J2dyGMC0eDG8jGoPul1R-53" value="" style="group" vertex="1" connectable="0" parent="WIyWlLk6GJQsqaUBKTNV-1">
          <mxGeometry x="966.25" y="240.5" width="100" height="60" as="geometry" />
        </mxCell>
        <mxCell id="J2dyGMC0eDG8jGoPul1R-54" value="" style="verticalLabelPosition=bottom;verticalAlign=top;html=1;shape=hexagon;perimeter=hexagonPerimeter2;arcSize=6;size=0.27;" vertex="1" parent="J2dyGMC0eDG8jGoPul1R-53">
          <mxGeometry width="100" height="60" as="geometry" />
        </mxCell>
        <mxCell id="J2dyGMC0eDG8jGoPul1R-55" value="for j in range(5):" style="text;html=1;align=center;verticalAlign=middle;whiteSpace=wrap;rounded=0;" vertex="1" parent="J2dyGMC0eDG8jGoPul1R-53">
          <mxGeometry x="20" y="15" width="60" height="30" as="geometry" />
        </mxCell>
        <mxCell id="J2dyGMC0eDG8jGoPul1R-57" style="edgeStyle=orthogonalEdgeStyle;rounded=0;orthogonalLoop=1;jettySize=auto;html=1;exitX=0.5;exitY=1;exitDx=0;exitDy=0;entryX=0.5;entryY=0;entryDx=0;entryDy=0;" edge="1" parent="WIyWlLk6GJQsqaUBKTNV-1" source="J2dyGMC0eDG8jGoPul1R-51" target="J2dyGMC0eDG8jGoPul1R-54">
          <mxGeometry relative="1" as="geometry" />
        </mxCell>
        <mxCell id="J2dyGMC0eDG8jGoPul1R-61" style="edgeStyle=orthogonalEdgeStyle;rounded=0;orthogonalLoop=1;jettySize=auto;html=1;exitX=0.5;exitY=1;exitDx=0;exitDy=0;entryX=0.5;entryY=0;entryDx=0;entryDy=0;" edge="1" parent="WIyWlLk6GJQsqaUBKTNV-1" source="J2dyGMC0eDG8jGoPul1R-58" target="J2dyGMC0eDG8jGoPul1R-60">
          <mxGeometry relative="1" as="geometry" />
        </mxCell>
        <mxCell id="J2dyGMC0eDG8jGoPul1R-188" value="Yes" style="edgeLabel;html=1;align=center;verticalAlign=middle;resizable=0;points=[];" vertex="1" connectable="0" parent="J2dyGMC0eDG8jGoPul1R-61">
          <mxGeometry x="-0.1951" y="1" relative="1" as="geometry">
            <mxPoint y="-1" as="offset" />
          </mxGeometry>
        </mxCell>
        <mxCell id="J2dyGMC0eDG8jGoPul1R-101" style="edgeStyle=orthogonalEdgeStyle;rounded=0;orthogonalLoop=1;jettySize=auto;html=1;exitX=0;exitY=0.5;exitDx=0;exitDy=0;entryX=0.5;entryY=0;entryDx=0;entryDy=0;" edge="1" parent="WIyWlLk6GJQsqaUBKTNV-1" source="J2dyGMC0eDG8jGoPul1R-58" target="J2dyGMC0eDG8jGoPul1R-62">
          <mxGeometry relative="1" as="geometry" />
        </mxCell>
        <mxCell id="J2dyGMC0eDG8jGoPul1R-189" value="No" style="edgeLabel;html=1;align=center;verticalAlign=middle;resizable=0;points=[];" vertex="1" connectable="0" parent="J2dyGMC0eDG8jGoPul1R-101">
          <mxGeometry x="0.2344" y="-2" relative="1" as="geometry">
            <mxPoint as="offset" />
          </mxGeometry>
        </mxCell>
        <mxCell id="J2dyGMC0eDG8jGoPul1R-58" value="if new_round_2[i][j] == divided_key[i][j]" style="rhombus;whiteSpace=wrap;html=1;" vertex="1" parent="WIyWlLk6GJQsqaUBKTNV-1">
          <mxGeometry x="890" y="320.5" width="263.75" height="80" as="geometry" />
        </mxCell>
        <mxCell id="J2dyGMC0eDG8jGoPul1R-59" style="edgeStyle=orthogonalEdgeStyle;rounded=0;orthogonalLoop=1;jettySize=auto;html=1;exitX=0.5;exitY=1;exitDx=0;exitDy=0;entryX=0.5;entryY=0;entryDx=0;entryDy=0;" edge="1" parent="WIyWlLk6GJQsqaUBKTNV-1" source="J2dyGMC0eDG8jGoPul1R-54" target="J2dyGMC0eDG8jGoPul1R-58">
          <mxGeometry relative="1" as="geometry" />
        </mxCell>
        <mxCell id="J2dyGMC0eDG8jGoPul1R-95" style="edgeStyle=orthogonalEdgeStyle;rounded=0;orthogonalLoop=1;jettySize=auto;html=1;exitX=0.5;exitY=1;exitDx=0;exitDy=0;entryX=0;entryY=0.5;entryDx=0;entryDy=0;" edge="1" parent="WIyWlLk6GJQsqaUBKTNV-1" source="J2dyGMC0eDG8jGoPul1R-60" target="J2dyGMC0eDG8jGoPul1R-54">
          <mxGeometry relative="1" as="geometry">
            <Array as="points">
              <mxPoint x="1020" y="451" />
              <mxPoint x="1020" y="520" />
              <mxPoint x="800" y="520" />
              <mxPoint x="800" y="271" />
            </Array>
          </mxGeometry>
        </mxCell>
        <mxCell id="J2dyGMC0eDG8jGoPul1R-60" value="round_3[i] += &#39;1&#39;" style="rounded=1;whiteSpace=wrap;html=1;" vertex="1" parent="WIyWlLk6GJQsqaUBKTNV-1">
          <mxGeometry x="966.25" y="421" width="111.25" height="30" as="geometry" />
        </mxCell>
        <mxCell id="J2dyGMC0eDG8jGoPul1R-93" style="edgeStyle=orthogonalEdgeStyle;rounded=0;orthogonalLoop=1;jettySize=auto;html=1;exitX=0.5;exitY=1;exitDx=0;exitDy=0;entryX=0;entryY=0.5;entryDx=0;entryDy=0;" edge="1" parent="WIyWlLk6GJQsqaUBKTNV-1" source="J2dyGMC0eDG8jGoPul1R-62" target="J2dyGMC0eDG8jGoPul1R-54">
          <mxGeometry relative="1" as="geometry">
            <Array as="points">
              <mxPoint x="866" y="520" />
              <mxPoint x="800" y="520" />
              <mxPoint x="800" y="271" />
            </Array>
          </mxGeometry>
        </mxCell>
        <mxCell id="J2dyGMC0eDG8jGoPul1R-62" value="round_3[i] += &#39;0&#39;" style="rounded=1;whiteSpace=wrap;html=1;" vertex="1" parent="WIyWlLk6GJQsqaUBKTNV-1">
          <mxGeometry x="810" y="470" width="111.25" height="30" as="geometry" />
        </mxCell>
        <mxCell id="J2dyGMC0eDG8jGoPul1R-72" style="edgeStyle=orthogonalEdgeStyle;rounded=0;orthogonalLoop=1;jettySize=auto;html=1;exitX=0.5;exitY=1;exitDx=0;exitDy=0;entryX=0.5;entryY=0;entryDx=0;entryDy=0;" edge="1" parent="WIyWlLk6GJQsqaUBKTNV-1" source="J2dyGMC0eDG8jGoPul1R-64" target="J2dyGMC0eDG8jGoPul1R-70">
          <mxGeometry relative="1" as="geometry" />
        </mxCell>
        <mxCell id="J2dyGMC0eDG8jGoPul1R-64" value="round_4 = &#39;&#39;" style="rounded=1;whiteSpace=wrap;html=1;" vertex="1" parent="WIyWlLk6GJQsqaUBKTNV-1">
          <mxGeometry x="1234.38" y="102" width="111.25" height="30" as="geometry" />
        </mxCell>
        <mxCell id="J2dyGMC0eDG8jGoPul1R-69" value="" style="group" vertex="1" connectable="0" parent="WIyWlLk6GJQsqaUBKTNV-1">
          <mxGeometry x="1220" y="161" width="140" height="60" as="geometry" />
        </mxCell>
        <mxCell id="J2dyGMC0eDG8jGoPul1R-70" value="" style="verticalLabelPosition=bottom;verticalAlign=top;html=1;shape=hexagon;perimeter=hexagonPerimeter2;arcSize=6;size=0.27;" vertex="1" parent="J2dyGMC0eDG8jGoPul1R-69">
          <mxGeometry width="140" height="60" as="geometry" />
        </mxCell>
        <mxCell id="J2dyGMC0eDG8jGoPul1R-71" value="for let in round_3" style="text;html=1;align=center;verticalAlign=middle;whiteSpace=wrap;rounded=0;" vertex="1" parent="J2dyGMC0eDG8jGoPul1R-69">
          <mxGeometry x="28" y="15" width="84" height="30" as="geometry" />
        </mxCell>
        <mxCell id="J2dyGMC0eDG8jGoPul1R-75" style="edgeStyle=orthogonalEdgeStyle;rounded=0;orthogonalLoop=1;jettySize=auto;html=1;exitX=0.5;exitY=1;exitDx=0;exitDy=0;entryX=0;entryY=0.5;entryDx=0;entryDy=0;" edge="1" parent="WIyWlLk6GJQsqaUBKTNV-1" source="J2dyGMC0eDG8jGoPul1R-73" target="J2dyGMC0eDG8jGoPul1R-70">
          <mxGeometry relative="1" as="geometry" />
        </mxCell>
        <mxCell id="J2dyGMC0eDG8jGoPul1R-73" value="round_4 += let" style="rounded=1;whiteSpace=wrap;html=1;" vertex="1" parent="WIyWlLk6GJQsqaUBKTNV-1">
          <mxGeometry x="1236.25" y="241" width="111.25" height="30" as="geometry" />
        </mxCell>
        <mxCell id="J2dyGMC0eDG8jGoPul1R-74" style="edgeStyle=orthogonalEdgeStyle;rounded=0;orthogonalLoop=1;jettySize=auto;html=1;exitX=0.5;exitY=1;exitDx=0;exitDy=0;entryX=0.5;entryY=0;entryDx=0;entryDy=0;" edge="1" parent="WIyWlLk6GJQsqaUBKTNV-1" source="J2dyGMC0eDG8jGoPul1R-70" target="J2dyGMC0eDG8jGoPul1R-73">
          <mxGeometry relative="1" as="geometry" />
        </mxCell>
        <mxCell id="J2dyGMC0eDG8jGoPul1R-85" value="round_5 = int(round_4, 2)" style="rounded=1;whiteSpace=wrap;html=1;" vertex="1" parent="WIyWlLk6GJQsqaUBKTNV-1">
          <mxGeometry x="1220" y="361" width="160" height="30" as="geometry" />
        </mxCell>
        <mxCell id="J2dyGMC0eDG8jGoPul1R-91" style="edgeStyle=orthogonalEdgeStyle;rounded=0;orthogonalLoop=1;jettySize=auto;html=1;exitX=1;exitY=0.5;exitDx=0;exitDy=0;entryX=0.5;entryY=0;entryDx=0;entryDy=0;" edge="1" parent="WIyWlLk6GJQsqaUBKTNV-1" source="J2dyGMC0eDG8jGoPul1R-70" target="J2dyGMC0eDG8jGoPul1R-85">
          <mxGeometry relative="1" as="geometry">
            <Array as="points">
              <mxPoint x="1380" y="191" />
              <mxPoint x="1380" y="320" />
              <mxPoint x="1300" y="320" />
            </Array>
          </mxGeometry>
        </mxCell>
        <mxCell id="J2dyGMC0eDG8jGoPul1R-98" value="return round_5" style="strokeWidth=2;html=1;shape=mxgraph.flowchart.start_1;whiteSpace=wrap;" vertex="1" parent="WIyWlLk6GJQsqaUBKTNV-1">
          <mxGeometry x="1250" y="430" width="100" height="60" as="geometry" />
        </mxCell>
        <mxCell id="J2dyGMC0eDG8jGoPul1R-99" style="edgeStyle=orthogonalEdgeStyle;rounded=0;orthogonalLoop=1;jettySize=auto;html=1;exitX=0.5;exitY=1;exitDx=0;exitDy=0;entryX=0.5;entryY=0;entryDx=0;entryDy=0;entryPerimeter=0;" edge="1" parent="WIyWlLk6GJQsqaUBKTNV-1" source="J2dyGMC0eDG8jGoPul1R-85" target="J2dyGMC0eDG8jGoPul1R-98">
          <mxGeometry relative="1" as="geometry" />
        </mxCell>
        <mxCell id="J2dyGMC0eDG8jGoPul1R-136" style="edgeStyle=orthogonalEdgeStyle;rounded=0;orthogonalLoop=1;jettySize=auto;html=1;exitX=1;exitY=0.5;exitDx=0;exitDy=0;entryX=0;entryY=0.5;entryDx=0;entryDy=0;" edge="1" parent="WIyWlLk6GJQsqaUBKTNV-1" source="J2dyGMC0eDG8jGoPul1R-54" target="J2dyGMC0eDG8jGoPul1R-51">
          <mxGeometry relative="1" as="geometry">
            <Array as="points">
              <mxPoint x="1160" y="270" />
              <mxPoint x="1160" y="540" />
              <mxPoint x="780" y="540" />
              <mxPoint x="780" y="190" />
            </Array>
          </mxGeometry>
        </mxCell>
        <mxCell id="J2dyGMC0eDG8jGoPul1R-137" style="edgeStyle=orthogonalEdgeStyle;rounded=0;orthogonalLoop=1;jettySize=auto;html=1;exitX=1;exitY=0.5;exitDx=0;exitDy=0;entryX=0;entryY=0.5;entryDx=0;entryDy=0;" edge="1" parent="WIyWlLk6GJQsqaUBKTNV-1" source="J2dyGMC0eDG8jGoPul1R-51" target="J2dyGMC0eDG8jGoPul1R-64">
          <mxGeometry relative="1" as="geometry" />
        </mxCell>
      </root>
    </mxGraphModel>
  </diagram>
</mxfile>
